<?xml version="1.0" encoding="UTF-8"?><svg id="Layer_2" xmlns="http://www.w3.org/2000/svg" viewBox="0 0 202 211"><defs><style>.cls-1{stroke:#49a368;stroke-miterlimit:10;stroke-width:3px;}.cls-1,.cls-2,.cls-3{fill:none;}.cls-2,.cls-3{stroke-width:0px;}.cls-3{opacity:.5;}</style></defs><path class="cls-1" d="M196.31,170.99c-2.3,4.9-7.8,7.15-12.73,7.72-8.58.99-54.12-1.02-56.78,0-1.22.82,4.47,8.61,5.68,9.95,4.11,4.56,10.13,5.56,11.16,16.05,7.77.51,14.84-1.86,11.75,3.25H48.86c-4.16-4.98,5.47-2.8,13.31-3.25,2.62-14.11,11.14-10.47,18.21-25.59l.2-.81c-7.2.48-14.37-.62-21.54-.81-11.4-.31-40.39.77-44.64.41-.59-.05-3.15-.8-3.72-1.42-.2-1.1,3.36.55,4.11.61,16.48,1.19,49.09-.58,67.55-.41,7.7.03,15.4.02,23.1,0,11.02-.03,75.38.2,79.3-.41,5.4-.83,10.68-5.6,11.16-11.38,1.94-1.63-.13-10.24,1.17-14.83-.38,7.02.89,14.14-.78,20.92Z"/><path class="cls-1" d="M91.55,179.52h24.28q3.03,4.98,6.07,9.95-18.11-.1-36.22-.2l5.87-9.75Z"/><path class="cls-1" d="M99.38,158.8c9.31-1.95,8.14,14.22-.78,10.56-4.23-1.74-3.61-9.64.78-10.56Z"/><path class="cls-1" d="M196.31,170.99c1.67-6.78.41-13.9.78-20.92-1.31,4.59.77,13.2-1.17,14.83q-.1-7.52-.2-15.03c-30.35-.03-60.7.04-91.05,0-33.29-.04-66.58-.14-99.86.2.35,8.48-2.8,24.25,8.81,26.2,3.39.57,59.09.37,68.73.41-18.46-.17-51.07,1.6-67.55.41-.76-.05-4.31-1.71-4.11-.61.57.62,3.13,1.37,3.72,1.42,4.25.37,33.24-.72,44.64-.41,7.17.2,14.34,1.29,21.54.81l-.2.81c-15.81-1.74-52.72.94-64.42-.41-5.7-.66-11.75-4.4-12.73-10.77-1.45-9.47,1.11-123.53,0-145.85C5.43,10.7,12.29,4.45,23.41,3.2h154.69c11.14,1.67,17.97,7.46,19.78,19.3-1.27,24.03,1.67,132.45,0,144.63-.18,1.32-1.02,2.69-1.57,3.86Z"/><path class="cls-1" d="M189.26,50.32C128.58,11.08,77.28,11.09,12.25,39.76c.27-12.48-3.19-22.29,11.94-27.63h152.73c17.43,4.66,12.18,24.24,12.34,38.19Z"/><path class="cls-1" d="M189.26,50.32c.15,13.54,1.38,66.2.39,74.55-.66,5.58-5.12,12.98-10.77,14.02-7.81,1.43-136.52-1.09-158.6,0-3.24-.63-7.87-6.24-8.42-9.55-.89-5.36.14-77.68.39-89.58,65.03-28.68,116.33-28.68,177.01,10.56Z"/><path class="cls-1" d="M67.66,57.23c17.05-2.17,22.97,15.52,18.21,29.86-2.68,8.07-14.68,23.08-22.52,27.02l-8.42-4.67q7.64-8.94,15.27-17.88c-.15-1.1-11.84.98-15.27-8.53-3.66-10.15,1.42-24.36,12.73-25.8Z"/><path class="cls-1" d="M70.4,68.2c7.32-.49,6.98,12.11,1.17,13.41-9.14,2.03-8.1-12.94-1.17-13.41Z"/><path class="cls-1" d="M152.84,62.51c1.39,3.77,2.08,5.7,2.74,9.75,2.88,17.75-3.19,35.78-23.5,30.06-.02-.01.07-.09-.39-.41-.46-.31-1.22-.48-1.57-.81-3.92-3.67-6.02-10.54-6.66-15.84-.75-6.21-.49-13.26,1.96-19.09,3.63-8.64,13.49-11.45,21.73-8.13,2.36.95,3.72,3.09,5.68,4.47Z"/><path class="cls-1" d="M138.54,68.61c9.44-2.86,8.47,22.08,1.17,22.75-7.91.73-6.68-21.08-1.17-22.75Z"/><path class="cls-1" d="M120.33,68.61c2.83,9.01,1.66,25.8-6.46,31.69-4.35,3.16-11.34,4.21-16.25,2.03-.24-.11-1.89-1.26-2.35-1.63-3.96-3.17-6.17-10.09-7.05-15.03.95-5.56-.34-16.56,5.09-23.36,5.73-7.19,22.4-8.39,27.02,6.3Z"/><path class="cls-1" d="M104.47,68.2c9.1-1.53,7.05,23.93-.78,23.16-6.68-.66-5.28-22.14.78-23.16Z"/><path class="cls-3" d="M108.67,111.39c-.72.38-.32,2.91-.27,4.54-10.39-3.56-10.97,13.61-.82,11.63-.34.92-.23,2.05-1.37,2.13l3.01.43c-5.38.01-10.76.02-16.14,0-6.73-.03-45.63.11-48-.28-8.11-1.36-5.91-12.38-6.15-18.3,23.25-.24,46.49-.17,69.74-.14Z"/><path class="cls-3" d="M172.39,121.89c-.34,4.03-4.02,7.37-7.79,7.94-2.74.42-47.68.27-55.38.28l-3.01-.43c1.14-.08,1.02-1.21,1.37-2.13,5.1-.99,5.47-10.04.82-11.63-.04-1.63-.44-4.16.27-4.54,21.2.03,42.39-.02,63.59,0l.14,10.5Z"/><path class="cls-2" d="M52.34,15.24c56.85-13.19,106.66,0,106.66,0,0,0,9.96,1.95,8.48,14.35,0,0,2.3,27.36.41,64.38,0,0-.15,7.55-7.52,9.79,0,0-53.16.77-110.76,0,0,0-4.16-1.57-5.88-6.67,0,0-1.68-39.83.3-67.96,0,0-1.35-11.65,8.32-13.89Z"/></svg>