<?xml version="1.0" encoding="UTF-8"?><svg id="Layer_2" xmlns="http://www.w3.org/2000/svg" width="138.24" height="140.71" viewBox="0 0 138.24 140.71"><g id="Layer_1-2"><rect x=".5" y="79.21" width="97" height="61" style="fill:none; stroke:#53df69; stroke-miterlimit:10;"/><polyline points=".5 79.21 21.5 58.21 21.5 41.21 21.5 71.21 29.08 78.79 15.22 64.93 15.22 78.83" style="fill:none; stroke:#53df69; stroke-miterlimit:10;"/><polyline points="21.5 41.21 90.77 41.21 90.77 72.45 83.76 79.46 97.5 66.21 97.5 79.21" style="fill:none; stroke:#53df69; stroke-miterlimit:10;"/><line x1="97.5" y1="66.21" x2="90.92" y2="59.63" style="fill:none; stroke:#53df69; stroke-miterlimit:10;"/><path d="m61.5,59.21c-.35-.2-4.02-1.3-7,0-3.47,1.51-3.94,5.45-4,6-.04.4-.33,3.64,2,6,.43.44,1.45,1.47,3.07,1.76,2.12.37,4.39-.73,5.93-2.76v-13s-.97,15.58,2,16c7,1,7.04-4.76,6-11s-6.92-10.2-13-10c-2.91.09-8.66.36-12.14,7.42-3.03,6.13-.1,12.72,1.14,14.58,2,3,9,4,9,4h0" style="fill:none; stroke:#53df69; stroke-miterlimit:10;"/><polyline points="97.5 140.21 137.74 78.21 137.74 38.37 115.53 38.37 115.53 16.21 75.5 16.21 86.5 27.21 103.5 27.21 103.5 60.33 98.1 65.74 122.06 41.77 122.06 97.21 110.5 97.21 110.1 53.74 110.1 107.21 97.5 107.21" style="fill:none; stroke:#53df69; stroke-miterlimit:10;"/><line x1="110.1" y1="102.71" x2="97.5" y2="95.98" style="fill:none; stroke:#53df69; stroke-miterlimit:10;"/><line x1="122.06" y1="93.22" x2="110.5" y2="87.21" style="fill:none; stroke:#53df69; stroke-miterlimit:10;"/><polyline points="40.34 41.21 56.5 26.21 71.66 41.21" style="fill:none; stroke:#53df69; stroke-miterlimit:10;"/><path d="m69,37.9s6.5-.69,8.5,3.31" style="fill:none; stroke:#53df69; stroke-miterlimit:10;"/><polyline points="75.5 16.21 69 9.71 51 27.71 34.5 27.71 34.5 41.21" style="fill:none; stroke:#53df69; stroke-miterlimit:10;"/><line x1="51" y1="27.71" x2="54.61" y2="27.71" style="fill:none; stroke:#53df69; stroke-miterlimit:10;"/><line x1="86.5" y1="27.21" x2="57.76" y2="27.21" style="fill:none; stroke:#53df69; stroke-miterlimit:10;"/><polyline points="62.5 16.21 45.5 16.21 45.5 27.21" style="fill:none; stroke:#53df69; stroke-miterlimit:10;"/><polyline points="70.5 10.21 80 .71 95.5 16.21" style="fill:none; stroke:#53df69; stroke-miterlimit:10;"/><line x1="103.5" y1="46.21" x2="110.56" y2="53.27" style="fill:none; stroke:#53df69; stroke-miterlimit:10;"/><line x1="115.53" y1="38.37" x2="115.53" y2="48.03" style="fill:none; stroke:#53df69; stroke-miterlimit:10;"/><line x1="122.06" y1="41.77" x2="116.09" y2="38.37" style="fill:none; stroke:#53df69; stroke-miterlimit:10;"/></g></svg>