<?xml version="1.0" encoding="UTF-8"?><svg id="Layer_2" xmlns="http://www.w3.org/2000/svg" width="301.03" height="355.19" viewBox="0 0 301.03 355.19"><g id="Layer_1-2"><path d="m44.53,263.67v60.05l99,30.95,157-38V104.15s-19-53.48-60-52.48-47.07-.01-47.07-.01c0,0-4.93-27.99,24.07-26.99V.5h-34.8v59.17l7.15,11.83,3.57-19.85-3.57,19.85s31.65-6.83,36.65,94.17" style="fill:none; stroke:#53df69; stroke-miterlimit:10;"/><path d="m182.73,48.67h-70.2s27,15,27,83,4,223,4,223" style="fill:none; stroke:#53df69; stroke-miterlimit:10;"/><path d="m32.53,190.67L.53,233.67s9,58,69,12l33-36-83.19-1.28,106.95,1.73,3.58.06,10.53.17" style="fill:none; stroke:#53df69; stroke-miterlimit:10;"/><line x1="131.23" y1="76.19" x2="131.23" y2="210.17" style="fill:none; stroke:#53df69; stroke-miterlimit:10;"/><polyline points="131.23 127.38 106.53 113.67 106.53 209.82" style="fill:none; stroke:#53df69; stroke-miterlimit:10;"/><rect x="118.88" y="130.44" width="12.35" height="71.22" style="fill:none; stroke:#53df69; stroke-miterlimit:10;"/><polyline points="106.53 136.06 61.53 125.67 53.98 134.83 54.48 135.02 105.53 153.67 106.53 168.74 53.53 147.2 58.53 140.67 53.53 134.7" style="fill:none; stroke:#53df69; stroke-miterlimit:10;"/><line x1="58.53" y1="140.67" x2="106.53" y2="160.83" style="fill:none; stroke:#53df69; stroke-miterlimit:10;"/><polyline points="53.53 147.2 54.53 156.67 49.62 166.05 106.53 183.98 106.53 174.61 54.53 156.67" style="fill:none; stroke:#53df69; stroke-miterlimit:10;"/><polyline points="49.62 166.05 54.53 174.67 47.53 187.67 105.53 192.67 54.53 174.67" style="fill:none; stroke:#53df69; stroke-miterlimit:10;"/><polyline points="32.53 190.67 41.88 190.67 106.53 209.08 106.9 199.87 53.53 193.59" style="fill:none; stroke:#53df69; stroke-miterlimit:10;"/><path d="m41.53,190.67v-48h-18.46s-3.67-97.57,47.39-99.29h1.84" style="fill:none; stroke:#53df69; stroke-miterlimit:10;"/><path d="m111.75,48.67h-8.43s-11.8-17-21.8-17-9,14-9,14l28,15,2-13" style="fill:none; stroke:#53df69; stroke-miterlimit:10;"/><path d="m47.7,132.73l-.04,1.37c2.13-82.56,32.37-84.42,32.37-84.42" style="fill:none; stroke:#53df69; stroke-miterlimit:10;"/><line x1="44.53" y1="263.78" x2="44.53" y2="260.61" style="fill:none; stroke:#53df69; stroke-miterlimit:10;"/><path d="m235.5,51.78c5.21,1.23,12.64,3.65,20.03,8.88,25.56,18.09,28.41,54.03,30,84,2.09,39.53,3.29,93.6,0,160" style="fill:none; stroke:#53df69; stroke-miterlimit:10;"/><polygon points="180.53 206.67 180.53 297.42 272.53 272.67 272.53 179.36 180.53 206.67" style="fill:none; stroke:#53df69; stroke-miterlimit:10;"/><polyline points="192.53 246.67 192.53 217.25 200.53 234.67 208 217.25 208 245.67" style="fill:none; stroke:#53df69; stroke-miterlimit:10;"/><path d="m215.53,211.67l-2,33,2-33Z" style="fill:none; stroke:#53df69; stroke-miterlimit:10;"/><polyline points="234.53 235.67 226.53 225.56 215.53 211.67 214.53 228.17 224.53 223.38" style="fill:none; stroke:#53df69; stroke-miterlimit:10;"/><line x1="234.53" y1="206.91" x2="238.53" y2="232.67" style="fill:none; stroke:#53df69; stroke-miterlimit:10;"/><polyline points="242.53 203.67 246.53 231.67 257.53 227.67" style="fill:none; stroke:#53df69; stroke-miterlimit:10;"/><path d="m200.27,258.61l2.26,24.05s15-1,14-8-14.27-4.03-14.27-4.03c0,0,10.27-3.97,9.27-9.97s-11.26-2.05-11.26-2.05Z" style="fill:none; stroke:#53df69; stroke-miterlimit:10;"/><path d="m225.53,252.67s8.94-1,9.97,8.5-.97,11.5-6.97,12.5-10-3-11-10,3-10,8-11Z" style="fill:none; stroke:#53df69; stroke-miterlimit:10;"/><line x1="254.35" y1="244.67" x2="244.53" y2="271.67" style="fill:none; stroke:#53df69; stroke-miterlimit:10;"/><line x1="237.53" y1="249.67" x2="259.53" y2="265.67" style="fill:none; stroke:#53df69; stroke-miterlimit:10;"/></g></svg>