<?xml version="1.0" encoding="UTF-8"?><svg id="Layer_2" xmlns="http://www.w3.org/2000/svg" width="91" height="104.22" viewBox="0 0 91 104.22"><g id="Layer_1-2"><polyline points=".5 98.72 46.5 73.24 89.5 98.72 57.5 79.72 90.5 45.83 90.5 103.72 .5 103.72 .5 97.75 .5 44.72 35.28 79.45" style="fill:none; stroke:#53df69; stroke-miterlimit:10;"/><polyline points="9.55 53.75 9.55 16.9 83.5 16.9 83.5 52.22" style="fill:none; stroke:#53df69; stroke-miterlimit:10;"/><line x1=".5" y1="44.72" x2="9.45" y2="35.76" style="fill:none; stroke:#53df69; stroke-miterlimit:10;"/><line x1="90.5" y1="45.83" x2="83.44" y2="38.77" style="fill:none; stroke:#53df69; stroke-miterlimit:10;"/><polyline points="29.5 16.72 46.5 .72 60.79 16.72" style="fill:none; stroke:#53df69; stroke-miterlimit:10;"/><rect x="38.96" y="58.6" width="5.99" height="10.8" transform="translate(-29.06 35.49) rotate(-34.88)" style="fill:none; stroke:#53df69; stroke-miterlimit:10;"/><rect x="28.27" y="45.38" width="13" height="14.99" transform="translate(-24 29.38) rotate(-34.88)" style="fill:none; stroke:#53df69; stroke-miterlimit:10;"/><rect x="25.5" y="53.72" width="4" height="8" transform="translate(-28.07 26.1) rotate(-34.88)" style="fill:none; stroke:#53df69; stroke-miterlimit:10;"/><path d="m36.67,44.24l11.83-17.53c0-.46,0-4.11,2-5,.35-.15,1.57-.58,4,1,0,0,15,26,15,26h0c.3.82.6,2.08,0,3-.93,1.43-3.49,1.24-4.65,1.16-9.7-.6-21.19.84-21.35.84h0" style="fill:none; stroke:#53df69; stroke-miterlimit:10;"/><line x1="48.5" y1="26.72" x2="65.21" y2="52.88" style="fill:none; stroke:#53df69; stroke-miterlimit:10;"/><line x1="65.21" y1="21.54" x2="61.5" y2="28.72" style="fill:none; stroke:#53df69; stroke-miterlimit:10;"/><line x1="70.5" y1="29.72" x2="65.21" y2="33.92" style="fill:none; stroke:#53df69; stroke-miterlimit:10;"/><line x1="67.5" y1="38.72" x2="75.5" y2="38.72" style="fill:none; stroke:#53df69; stroke-miterlimit:10;"/></g></svg>