<?xml version="1.0" encoding="UTF-8"?><svg id="Layer_2" xmlns="http://www.w3.org/2000/svg" width="117.62" height="115.86" viewBox="0 0 117.62 115.86"><g id="Layer_1-2"><path d="m48.26,32.03c-.22-.12-2.53-.82-4.4,0-2.18.95-2.48,3.43-2.52,3.78-.03.25-.2,2.29,1.26,3.78.27.27.92.93,1.93,1.1,1.34.23,2.76-.46,3.73-1.73v-8.18s-.61,9.8,1.26,10.07c4.4.63,4.43-3,3.78-6.92s-4.35-6.42-8.18-6.29c-1.83.06-5.45.23-7.64,4.67-1.9,3.86-.06,8,.72,9.17,1.26,1.89,5.66,2.52,5.66,2.52h0" style="fill:none; stroke:#53df69; stroke-miterlimit:10;"/><path d="m117.26,115.5l-38-38s22-29,5-54S43.26-5.5,23.26,7.5-7.27,53.16,7.26,73.5c15,21,50,24,72,4" style="fill:none; stroke:#53df69; stroke-miterlimit:10;"/><polyline points="17.26 71.5 45.37 55.5 73.26 70.5 51.87 59.12 68.95 42.04 73.49 37.5 73.49 73.5 17.26 73.5 17.26 37.5 39.1 59.08" style="fill:none; stroke:#53df69; stroke-miterlimit:10;"/><polyline points="22.26 42.5 22.26 19.5 68.51 19.5" style="fill:none; stroke:#53df69; stroke-miterlimit:10;"/><polyline points="68.26 19.5 68.35 19.5 68.35 42.5" style="fill:none; stroke:#53df69; stroke-miterlimit:10;"/><line x1="17.26" y1="37.5" x2="22.26" y2="32.5" style="fill:none; stroke:#53df69; stroke-miterlimit:10;"/><line x1="73.49" y1="37.5" x2="68.37" y2="32.39" style="fill:none; stroke:#53df69; stroke-miterlimit:10;"/><polyline points="35.25 19.5 45.26 9.5 55.26 19.5" style="fill:none; stroke:#53df69; stroke-miterlimit:10;"/></g></svg>