<?xml version="1.0" encoding="UTF-8"?><svg id="Layer_1" xmlns="http://www.w3.org/2000/svg" viewBox="0 0 145.78 201"><defs><style>.cls-1{fill:#fff;}.cls-1,.cls-2{stroke:#49a368;stroke-miterlimit:10;stroke-width:5px;}.cls-2{fill:none;}</style></defs><polygon class="cls-2" points="103.39 40.5 98.39 19.5 47.39 19.5 42.39 40.5 103.39 40.5"/><path class="cls-2" d="M102.89,40.5h28.5l-6-26s-2-11-16-11H36.39s-13,0-16,12c0,0-3,11-6,25h28.5"/><path class="cls-2" d="M114.39,63.5c15,0,28,0,28,0,2-10,0-20,0-20-69-5-139,0-139,0,0,0-2,10,0,20,0,0,45,0,91,0"/><path class="cls-1" d="M107.89,63.5h-7"/><path class="cls-2" d="M131.89,65s-3,59-7,117c0,0,.5,15.5-14.5,15.5H37.39s-15,0-16-17c0,0-3-54-8-116"/><path class="cls-2" d="M80.39,148.5s1,8,1,18c0,0,0,5-4,6,0,0-5,1-9,0,0,0-4,0-4-6v-19"/><path class="cls-2" d="M45.39,130.5c-.8-12.01,0-24,0-24,27-1,55,0,55,0,0,0,1,12,0,23,0,0-1,16-17,18,0,0-11,1-19,0,0,0-18-2-19-17Z"/><path class="cls-2" d="M53.89,104s-2.5-23.5,6.5-22.5c0,0,9-3,6,23"/><path class="cls-2" d="M78.89,104s-2.5-23.5,6.5-22.5c0,0,9-2,6.5,22.5"/></svg>