<?xml version="1.0" encoding="UTF-8"?><svg id="Layer_1" xmlns="http://www.w3.org/2000/svg" viewBox="0 0 82.5 136.36"><defs><style>.cls-1{fill:none;stroke:#49a368;stroke-miterlimit:10;stroke-width:5px;}</style></defs><path class="cls-1" d="M15.5,2.72s26.5-.5,51,0c0,0,13.5-.5,13,11,0,0,.5,52.5.5,107.5,0,0,0,11-11,12,0,0-27,1-54.5.5,0,0-11.5.5-11.5-13.5,0,0,0-58-.5-104.5,0,0-.5-13.5,13-13Z"/><path class="cls-1" d="M28.5,12.22h25.5"/><path class="cls-1" d="M5,22.22s37-1,74,0"/><path class="cls-1" d="M4.5,114.72s37.5-.5,73,0"/><path class="cls-1" d="M37,124.22h9"/><path class="cls-1" d="M29,84.22c12.96,1.44,24,0,24,0,0,0,10-1,10-9,0,0,1-8-9-9,0,0-3-9-12-9,0,0-9,0-13,9,0,0-9,0-9,9,0,0,0,8,9,9Z"/></svg>