<?xml version="1.0" encoding="UTF-8"?><svg id="Layer_2" xmlns="http://www.w3.org/2000/svg" width="254.52" height="220" viewBox="0 0 254.52 220"><g id="Layer_1-2"><polyline points="72.69 19.42 83.68 19.42 83.68 31.81" style="fill:none; stroke:#48dc85; stroke-miterlimit:10; stroke-width:4px;"/><polyline points="134.65 18.96 145.63 18.96 145.63 31.34" style="fill:none; stroke:#48dc85; stroke-miterlimit:10; stroke-width:4px;"/><polyline points="198.86 21.94 209.84 21.94 209.84 34.33" style="fill:none; stroke:#48dc85; stroke-miterlimit:10; stroke-width:4px;"/><path d="m2.52,15.27v155.32s-.92,10.3,10.09,12.21c11.01,1.91,230.64,0,230.64,0,0,0,8.77-1.91,8.77-12.45V15.27s-.08-13.08-7.84-12.76c-7.76.32-234.67,0-234.67,0,0,0-7,2.23-7,12.76Z" style="fill:none; stroke:#48dc85; stroke-miterlimit:10; stroke-width:5px;"/><line x1="2.52" y1="155.41" x2="252.02" y2="155.41" style="fill:none; stroke:#48dc85; stroke-miterlimit:10; stroke-width:5px;"/><path d="m176.1,217.5h-97.66c-.64,0-1.16-.56-1.16-1.26v-12.41c0-.7.52-1.26,1.16-1.26h97.66c.64,0,1.16.56,1.16,1.26v12.41c0,.7-.52,1.26-1.16,1.26Z" style="fill:none; stroke:#48dc85; stroke-miterlimit:10; stroke-width:5px;"/><line x1="102.04" y1="184.65" x2="98.04" y2="202.57" style="fill:none; stroke:#48dc85; stroke-miterlimit:10; stroke-width:5px;"/><line x1="153.08" y1="184.65" x2="156.83" y2="202.57" style="fill:none; stroke:#48dc85; stroke-miterlimit:10; stroke-width:5px;"/><rect x="120.39" y="168.73" width="13.76" height="1.99" rx=".91" ry=".91" style="fill:none; stroke:#48dc85; stroke-miterlimit:10; stroke-width:5px;"/><polygon points="47.01 18.43 70.86 18.43 72.66 20.38 84.62 33.36 84.62 70.19 47.01 70.19 47.01 18.43" style="fill:none; stroke:#48dc85; stroke-miterlimit:10; stroke-width:4px;"/><rect x="63.98" y="42.81" width="13.76" height="1" rx=".46" ry=".46" style="fill:none; stroke:#48dc85; stroke-miterlimit:10; stroke-width:4px;"/><rect x="57.56" y="52.77" width="20.18" height="1" rx=".46" ry=".46" style="fill:none; stroke:#48dc85; stroke-miterlimit:10; stroke-width:4px;"/><rect x="62.14" y="62.72" width="5.5" height="1" rx=".46" ry=".46" style="fill:none; stroke:#48dc85; stroke-miterlimit:10; stroke-width:4px;"/><rect x="72.23" y="62.72" width="5.5" height="1" rx=".46" ry=".46" style="fill:none; stroke:#48dc85; stroke-miterlimit:10; stroke-width:4px;"/><path d="m65.81,71.12s-2.75,14.67,0,15.08,59.09,0,59.09,0c0,0,1.45-3.57,3.29-3.57,0,0,.92,1.99.62-7.35-.21-6.61-.62-5.59-.62-5.59" style="fill:none; stroke:#48dc85; stroke-miterlimit:10; stroke-width:4px;"/><path d="m191.48,71.68s.76,14.47-.54,14.7-59.33,0-59.33,0c0,0-.67-3.75-3.43-3.75-1.1,0-1.85.57-2.35,1.26-.96,1.32-.99,3.19-.15,4.6.43.73,1.54,1.17,2.5,1.11.6-.04,0-.69,0,1,0,10.74,0,13.94,0,15.93" style="fill:none; stroke:#48dc85; stroke-miterlimit:10; stroke-width:4px;"/><path d="m127.73,89.57s4.13-.97,4.22-3.19" style="fill:none; stroke:#48dc85; stroke-miterlimit:10; stroke-width:4px;"/><path d="m103.42,139.36s10.09-31.85,11.72-32.85,47.9-1,50.24,0-11.51,33.84-11.51,33.84h-52.29v-44.79s16.51-3.98,18.35-1,2.75,5.97,4.59,5.97,4.2-.51,4.2-.51l24.24.51s2.75,2.99,1.83,3.98" style="fill:none; stroke:#48dc85; stroke-miterlimit:10; stroke-width:4px;"/><rect x="141.03" y="127.42" width="11.01" height="1" rx=".46" ry=".46" style="fill:none; stroke:#48dc85; stroke-miterlimit:10; stroke-width:4px;"/><rect x="138.28" y="133.39" width="11.01" height="1" rx=".46" ry=".46" style="fill:none; stroke:#48dc85; stroke-miterlimit:10; stroke-width:4px;"/><polygon points="108.96 17.96 132.81 17.96 134.62 19.92 146.57 32.89 146.57 69.72 108.96 69.72 108.96 17.96" style="fill:none; stroke:#48dc85; stroke-miterlimit:10; stroke-width:4px;"/><rect x="125.93" y="42.35" width="13.76" height="1" rx=".46" ry=".46" style="fill:none; stroke:#48dc85; stroke-miterlimit:10; stroke-width:4px;"/><rect x="119.51" y="52.3" width="20.18" height="1" rx=".46" ry=".46" style="fill:none; stroke:#48dc85; stroke-miterlimit:10; stroke-width:4px;"/><rect x="124.1" y="62.25" width="5.5" height="1" rx=".46" ry=".46" style="fill:none; stroke:#48dc85; stroke-miterlimit:10; stroke-width:4px;"/><rect x="134.19" y="62.25" width="5.5" height="1" rx=".46" ry=".46" style="fill:none; stroke:#48dc85; stroke-miterlimit:10; stroke-width:4px;"/><polygon points="173.17 20.95 197.02 20.95 198.83 22.91 210.78 35.88 210.78 72.71 173.17 72.71 173.17 20.95" style="fill:none; stroke:#48dc85; stroke-miterlimit:10; stroke-width:4px;"/><rect x="190.14" y="45.33" width="13.76" height="1" rx=".46" ry=".46" style="fill:none; stroke:#48dc85; stroke-miterlimit:10; stroke-width:4px;"/><rect x="183.72" y="55.29" width="20.18" height="1" rx=".46" ry=".46" style="fill:none; stroke:#48dc85; stroke-miterlimit:10; stroke-width:4px;"/><rect x="188.31" y="65.24" width="5.5" height="1" rx=".46" ry=".46" style="fill:none; stroke:#48dc85; stroke-miterlimit:10; stroke-width:4px;"/><rect x="198.4" y="65.24" width="5.5" height="1" rx=".46" ry=".46" style="fill:none; stroke:#48dc85; stroke-miterlimit:10; stroke-width:4px;"/></g></svg>