<?xml version="1.0" encoding="UTF-8"?><svg id="Layer_2" xmlns="http://www.w3.org/2000/svg" width="277.02" height="221" viewBox="0 0 277.02 221"><g id="Layer_1-2"><polyline points="79.02 19.5 91 19.5 91 31.95" style="fill:none; stroke:#48dc85; stroke-miterlimit:10; stroke-width:4px;"/><polyline points="146.56 19.03 158.54 19.03 158.54 31.48" style="fill:none; stroke:#48dc85; stroke-miterlimit:10; stroke-width:4px;"/><polyline points="216.56 22.03 228.54 22.03 228.54 34.48" style="fill:none; stroke:#48dc85; stroke-miterlimit:10; stroke-width:4px;"/><path d="m2.52,15.33v156.05s-1,10.34,11,12.27c12,1.92,251.44,0,251.44,0,0,0,9.56-1.92,9.56-12.5V15.33s-.09-13.14-8.54-12.82c-8.46.32-255.83,0-255.83,0,0,0-7.63,2.24-7.63,12.82Z" style="fill:none; stroke:#48dc85; stroke-miterlimit:10; stroke-width:5px;"/><line x1="2.52" y1="156.12" x2="274.52" y2="156.12" style="fill:none; stroke:#48dc85; stroke-miterlimit:10; stroke-width:5px;"/><path d="m191.75,218.5h-106.47c-.7,0-1.27-.57-1.27-1.27v-12.47c0-.7.57-1.27,1.27-1.27h106.47c.7,0,1.27.57,1.27,1.27v12.47c0,.7-.57,1.27-1.27,1.27Z" style="fill:none; stroke:#48dc85; stroke-miterlimit:10; stroke-width:5px;"/><line x1="111.02" y1="185.5" x2="106.66" y2="203.5" style="fill:none; stroke:#48dc85; stroke-miterlimit:10; stroke-width:5px;"/><line x1="166.66" y1="185.5" x2="170.74" y2="203.5" style="fill:none; stroke:#48dc85; stroke-miterlimit:10; stroke-width:5px;"/><rect x="131.02" y="169.5" width="15" height="2" rx="1" ry="1" style="fill:none; stroke:#48dc85; stroke-miterlimit:10; stroke-width:5px;"/><polygon points="51.02 18.5 77.02 18.5 78.99 20.47 92.02 33.5 92.02 70.5 51.02 70.5 51.02 18.5" style="fill:none; stroke:#48dc85; stroke-miterlimit:10; stroke-width:4px;"/><rect x="69.52" y="43" width="15" height="1" rx=".5" ry=".5" style="fill:none; stroke:#48dc85; stroke-miterlimit:10; stroke-width:4px;"/><rect x="62.52" y="53" width="22" height="1" rx=".5" ry=".5" style="fill:none; stroke:#48dc85; stroke-miterlimit:10; stroke-width:4px;"/><rect x="67.52" y="63" width="6" height="1" rx=".5" ry=".5" style="fill:none; stroke:#48dc85; stroke-miterlimit:10; stroke-width:4px;"/><rect x="78.52" y="63" width="6" height="1" rx=".5" ry=".5" style="fill:none; stroke:#48dc85; stroke-miterlimit:10; stroke-width:4px;"/><path d="m71.52,71.44s-3,14.73,0,15.15,64.41,0,64.41,0c0,0,1.59-3.59,3.59-3.59,0,0,1,2,.68-7.39-.23-6.64-.68-5.61-.68-5.61" style="fill:none; stroke:#48dc85; stroke-miterlimit:10; stroke-width:4px;"/><path d="m208.52,72s.83,14.54-.59,14.77-64.68,0-64.68,0c0,0-.73-3.77-3.73-3.77-1.2,0-2.01.57-2.56,1.26-1.05,1.32-1.08,3.21-.16,4.63.47.73,1.68,1.18,2.72,1.11.65-.04,0-.69,0,1,0,10.79,0,14,0,16" style="fill:none; stroke:#48dc85; stroke-miterlimit:10; stroke-width:4px;"/><path d="m139.02,89.97s4.5-.97,4.6-3.2" style="fill:none; stroke:#48dc85; stroke-miterlimit:10; stroke-width:4px;"/><path d="m112.52,140s11-32,12.78-33,52.22-1,54.77,0-12.54,34-12.54,34h-57v-45s18-4,20-1,3,6,5,6,4.58-.51,4.58-.51l26.42.51s3,3,2,4" style="fill:none; stroke:#48dc85; stroke-miterlimit:10; stroke-width:4px;"/><rect x="153.52" y="128" width="12" height="1" rx=".5" ry=".5" style="fill:none; stroke:#48dc85; stroke-miterlimit:10; stroke-width:4px;"/><rect x="150.52" y="134" width="12" height="1" rx=".5" ry=".5" style="fill:none; stroke:#48dc85; stroke-miterlimit:10; stroke-width:4px;"/><polygon points="118.56 18.03 144.56 18.03 146.53 20 159.56 33.03 159.56 70.03 118.56 70.03 118.56 18.03" style="fill:none; stroke:#48dc85; stroke-miterlimit:10; stroke-width:4px;"/><rect x="137.06" y="42.53" width="15" height="1" rx=".5" ry=".5" style="fill:none; stroke:#48dc85; stroke-miterlimit:10; stroke-width:4px;"/><rect x="130.06" y="52.53" width="22" height="1" rx=".5" ry=".5" style="fill:none; stroke:#48dc85; stroke-miterlimit:10; stroke-width:4px;"/><rect x="135.06" y="62.53" width="6" height="1" rx=".5" ry=".5" style="fill:none; stroke:#48dc85; stroke-miterlimit:10; stroke-width:4px;"/><rect x="146.06" y="62.53" width="6" height="1" rx=".5" ry=".5" style="fill:none; stroke:#48dc85; stroke-miterlimit:10; stroke-width:4px;"/><polygon points="188.56 21.03 214.56 21.03 216.53 23 229.56 36.03 229.56 73.03 188.56 73.03 188.56 21.03" style="fill:none; stroke:#48dc85; stroke-miterlimit:10; stroke-width:4px;"/><rect x="207.06" y="45.53" width="15" height="1" rx=".5" ry=".5" style="fill:none; stroke:#48dc85; stroke-miterlimit:10; stroke-width:4px;"/><rect x="200.06" y="55.53" width="22" height="1" rx=".5" ry=".5" style="fill:none; stroke:#48dc85; stroke-miterlimit:10; stroke-width:4px;"/><rect x="205.06" y="65.53" width="6" height="1" rx=".5" ry=".5" style="fill:none; stroke:#48dc85; stroke-miterlimit:10; stroke-width:4px;"/><rect x="216.06" y="65.53" width="6" height="1" rx=".5" ry=".5" style="fill:none; stroke:#48dc85; stroke-miterlimit:10; stroke-width:4px;"/></g></svg>