<?xml version="1.0" encoding="UTF-8"?><svg id="Layer_2" xmlns="http://www.w3.org/2000/svg" width="133" height="220" viewBox="0 0 133 220"><g id="Layer_1-2"><rect x="42.28" y="84.09" width="51.13" height="67.91" rx="3.71" ry="3.71" style="fill:none; stroke:#48dc85; stroke-miterlimit:10; stroke-width:5px;"/><rect x="59.06" y="74.5" width="16.78" height="9.59" rx="1.98" ry="1.98" style="fill:none; stroke:#48dc85; stroke-miterlimit:10; stroke-width:5px;"/><rect x="25.51" y="96.07" width="81.49" height="1.6" rx=".51" ry=".51" style="fill:none; stroke:#48dc85; stroke-miterlimit:10; stroke-width:4px;"/><rect x="55.47" y="106.06" width="1.6" height="34.36" rx=".51" ry=".51" transform="translate(112.53 246.47) rotate(-180)" style="fill:none; stroke:#48dc85; stroke-miterlimit:10; stroke-width:5px;"/><rect x="77.04" y="106.06" width="1.6" height="34.36" rx=".51" ry=".51" transform="translate(155.68 246.47) rotate(180)" style="fill:none; stroke:#48dc85; stroke-miterlimit:10; stroke-width:5px;"/><rect x="2.5" y="2.5" width="128" height="215" rx="11.81" ry="11.81" style="fill:none; stroke:#48db85; stroke-miterlimit:10; stroke-width:5px;"/><line x1="2.5" y1="27.65" x2="130.5" y2="27.65" style="fill:none; stroke:#48db85; stroke-miterlimit:10; stroke-width:5px;"/><path d="m38.07,2.5s2.43,11,6.43,11,43,1,47-1c1.26-.63,2.4-10,2.4-10" style="fill:none; stroke:#48db85; stroke-miterlimit:10; stroke-width:5px;"/><line x1="2.5" y1="191.39" x2="130.5" y2="191.39" style="fill:none; stroke:#48db85; stroke-miterlimit:10; stroke-width:5px;"/><rect x="49.5" y="199.5" width="33" height="4" rx="1.63" ry="1.63" style="fill:none; stroke:#48db85; stroke-miterlimit:10; stroke-width:5px;"/></g></svg>