<?xml version="1.0" encoding="UTF-8"?><svg id="Layer_2" xmlns="http://www.w3.org/2000/svg" width="230.55" height="219.8" viewBox="0 0 230.55 219.8"><g id="Layer_1-2"><path d="m110.46,163.75L39,95.03s-5,119.18,0,119.87,188.26,6.17,188.13,0c-.02-.91,1.36-119.87,1.36-119.87l-72.24,70.81,69.76,39.95s-89.73-52.99-93.37-53.45c-3.63-.46-94.63,53.45-94.63,53.45" style="fill:none; stroke:#48dc85; stroke-miterlimit:10; stroke-width:4px;"/><polyline points="39 95.03 55 79.35 55 37.47 211.81 37.47 211.81 110.22" style="fill:none; stroke:#48dc85; stroke-miterlimit:10; stroke-width:4px;"/><line x1="228.49" y1="95.03" x2="212.23" y2="79.1" style="fill:none; stroke:#48dc85; stroke-miterlimit:10; stroke-width:4px;"/><polyline points="168.15 37.47 132.77 2.8 97.16 37.71" style="fill:none; stroke:#48dc85; stroke-miterlimit:10; stroke-width:4px;"/><path d="m143,80.33s-22.12-11.74-23,10.78c-1,25.48,23,10.78,23,10.78l1.66-28.04-.66,29.02s-1,7.84,9,4.9,13-16.66,10-24.5-11-20.58-29-19.6c-18,.98-25.53,6.97-29,20.58-2,7.84.74,15.04,3.28,20.78,2.45,5.52,6.81,9.99,12.35,12.59,4.07,1.9,8.87,3.79,12,3.82" style="fill:none; stroke:#48dc85; stroke-miterlimit:10; stroke-width:4px;"/><rect x="21.22" y="80.09" width="58.58" height="76.26" rx="3.71" ry="3.71" style="fill:#262727; stroke:#48dc85; stroke-miterlimit:10; stroke-width:4px;"/><rect x="40.44" y="69.32" width="19.22" height="10.77" rx="1.98" ry="1.98" style="fill:#262727; stroke:#48dc85; stroke-miterlimit:10; stroke-width:4px;"/><rect x="2" y="93.54" width="93.36" height="1.79" rx=".51" ry=".51" style="fill:#262727; stroke:#48dc85; stroke-miterlimit:10; stroke-width:4px;"/><rect x="36.33" y="104.76" width="1.83" height="38.58" rx=".51" ry=".51" transform="translate(74.48 248.09) rotate(-180)" style="fill:#262727; stroke:#48dc85; stroke-miterlimit:10; stroke-width:4px;"/><rect x="61.04" y="104.76" width="1.83" height="38.58" rx=".51" ry=".51" transform="translate(123.91 248.09) rotate(180)" style="fill:#262727; stroke:#48dc85; stroke-miterlimit:10; stroke-width:4px;"/></g></svg>