<?xml version="1.0" encoding="UTF-8"?><svg id="Layer_2" xmlns="http://www.w3.org/2000/svg" width="230.55" height="224.19" viewBox="0 0 230.55 224.19"><g id="Layer_1-2"><path d="m110.46,167.04L39,96.93s-5,121.6,0,122.3,188.26,6.3,188.13,0c-.02-.93,1.36-122.3,1.36-122.3l-72.24,72.24,69.76,40.76s-89.73-54.06-93.37-54.53-94.63,54.53-94.63,54.53" style="fill:none; stroke:#48dc85; stroke-miterlimit:10; stroke-width:4px;"/><polyline points="39 96.93 55 80.93 55 38.2 211.81 38.2 211.81 112.43" style="fill:none; stroke:#48dc85; stroke-miterlimit:10; stroke-width:4px;"/><line x1="228.49" y1="96.93" x2="212.23" y2="80.67" style="fill:none; stroke:#48dc85; stroke-miterlimit:10; stroke-width:4px;"/><polyline points="168.15 38.2 132.77 2.83 97.16 38.45" style="fill:none; stroke:#48dc85; stroke-miterlimit:10; stroke-width:4px;"/><path d="m143,81.93s-22.12-11.98-23,11c-1,26,23,11,23,11l1.66-28.61-.66,29.61s-1,8,9,5,13-17,10-25-11-21-29-20-25.53,7.11-29,21c-2,8,.74,15.34,3.28,21.2s6.81,10.19,12.35,12.84c4.07,1.94,8.87,3.86,12,3.89" style="fill:none; stroke:#48dc85; stroke-miterlimit:10; stroke-width:4px;"/><rect x="21.22" y="81.68" width="58.58" height="77.8" rx="3.71" ry="3.71" style="fill:#262727; stroke:#48dc85; stroke-miterlimit:10; stroke-width:4px;"/><rect x="40.44" y="70.7" width="19.22" height="10.98" rx="1.98" ry="1.98" style="fill:#262727; stroke:#48dc85; stroke-miterlimit:10; stroke-width:4px;"/><rect x="2" y="95.41" width="93.36" height="1.83" rx=".51" ry=".51" style="fill:#262727; stroke:#48dc85; stroke-miterlimit:10; stroke-width:4px;"/><rect x="36.33" y="106.85" width="1.83" height="39.36" rx=".51" ry=".51" transform="translate(74.48 253.07) rotate(-180)" style="fill:#262727; stroke:#48dc85; stroke-miterlimit:10; stroke-width:4px;"/><rect x="61.04" y="106.85" width="1.83" height="39.36" rx=".51" ry=".51" transform="translate(123.91 253.07) rotate(180)" style="fill:#262727; stroke:#48dc85; stroke-miterlimit:10; stroke-width:4px;"/></g></svg>