<?xml version="1.0" encoding="UTF-8"?><svg id="Layer_2" xmlns="http://www.w3.org/2000/svg" width="277.02" height="221" viewBox="0 0 277.02 221"><g id="Layer_1-2"><path d="m2.52,15.33v156.05s-1,10.34,11,12.27c12,1.92,251.44,0,251.44,0,0,0,9.56-1.92,9.56-12.5V15.33s-.09-13.14-8.54-12.82S10.15,2.51,10.15,2.51c0,0-7.63,2.24-7.63,12.82Z" style="fill:none; stroke:#48dc85; stroke-miterlimit:10; stroke-width:5px;"/><line x1="2.52" y1="156.12" x2="274.52" y2="156.12" style="fill:none; stroke:#48dc85; stroke-miterlimit:10; stroke-width:5px;"/><path d="m191.75,218.5h-106.47c-.7,0-1.27-.57-1.27-1.27v-12.47c0-.7.57-1.27,1.27-1.27h106.47c.7,0,1.27.57,1.27,1.27v12.47c0,.7-.57,1.27-1.27,1.27Z" style="fill:none; stroke:#48dc85; stroke-miterlimit:10; stroke-width:5px;"/><line x1="111.02" y1="185.5" x2="106.66" y2="203.5" style="fill:none; stroke:#48dc85; stroke-miterlimit:10; stroke-width:5px;"/><line x1="166.66" y1="185.5" x2="170.74" y2="203.5" style="fill:none; stroke:#48dc85; stroke-miterlimit:10; stroke-width:5px;"/><rect x="131.02" y="169.5" width="15" height="2" rx="1" ry="1" style="fill:none; stroke:#48dc85; stroke-miterlimit:10; stroke-width:5px;"/><polygon points="46.21 38.84 90.5 38.84 93.86 42.19 116.06 64.39 116.06 127.42 46.21 127.42 46.21 38.84" style="fill:none; stroke:#48dc85; stroke-miterlimit:10; stroke-width:5px;"/><polyline points="93.91 40.54 114.32 40.54 114.32 61.75" style="fill:none; stroke:#48dc85; stroke-miterlimit:10; stroke-width:5px;"/><rect x="77.73" y="80.58" width="25.55" height="1.7" rx=".5" ry=".5" style="fill:none; stroke:#48dc85; stroke-miterlimit:10; stroke-width:5px;"/><rect x="65.8" y="97.61" width="37.48" height="1.7" rx=".5" ry=".5" style="fill:none; stroke:#48dc85; stroke-miterlimit:10; stroke-width:5px;"/><rect x="74.32" y="114.65" width="10.22" height="1.7" rx=".5" ry=".5" style="fill:none; stroke:#48dc85; stroke-miterlimit:10; stroke-width:5px;"/><rect x="93.06" y="114.65" width="10.22" height="1.7" rx=".5" ry=".5" style="fill:none; stroke:#48dc85; stroke-miterlimit:10; stroke-width:5px;"/><polygon points="164.72 39.45 209.01 39.45 212.36 42.8 234.56 65 234.56 128.03 164.72 128.03 164.72 39.45" style="fill:none; stroke:#48dc85; stroke-miterlimit:10; stroke-width:5px;"/><polyline points="212.42 41.15 232.82 41.15 232.82 62.36" style="fill:none; stroke:#48dc85; stroke-miterlimit:10; stroke-width:5px;"/><rect x="196.23" y="81.19" width="25.55" height="1.7" rx=".5" ry=".5" style="fill:none; stroke:#48dc85; stroke-miterlimit:10; stroke-width:5px;"/><rect x="184.31" y="98.22" width="37.48" height="1.7" rx=".5" ry=".5" style="fill:none; stroke:#48dc85; stroke-miterlimit:10; stroke-width:5px;"/><rect x="192.83" y="115.26" width="10.22" height="1.7" rx=".5" ry=".5" style="fill:none; stroke:#48dc85; stroke-miterlimit:10; stroke-width:5px;"/><rect x="211.57" y="115.26" width="10.22" height="1.7" rx=".5" ry=".5" style="fill:none; stroke:#48dc85; stroke-miterlimit:10; stroke-width:5px;"/><rect x="31.76" y="67.64" width="30.95" height="41.11" rx="3.71" ry="3.71" style="fill:#262727; stroke:#48dc85; stroke-miterlimit:10; stroke-width:4px;"/><rect x="41.92" y="61.84" width="10.16" height="5.8" rx="1.98" ry="1.98" style="fill:#262727; stroke:#48dc85; stroke-miterlimit:10; stroke-width:4px;"/><rect x="21.61" y="74.9" width="49.33" height=".97" rx=".48" ry=".48" style="fill:#262727; stroke:#48dc85; stroke-miterlimit:10; stroke-width:4px;"/><rect x="39.74" y="80.94" width=".97" height="20.79" rx=".48" ry=".48" style="fill:#262727; stroke:#48dc85; stroke-miterlimit:10; stroke-width:4px;"/><rect x="52.8" y="80.94" width=".97" height="20.79" rx=".48" ry=".48" style="fill:#262727; stroke:#48dc85; stroke-miterlimit:10; stroke-width:4px;"/></g></svg>