<?xml version="1.0" encoding="UTF-8"?><svg id="Layer_2" xmlns="http://www.w3.org/2000/svg" width="277.02" height="220" viewBox="0 0 277.02 220"><g id="Layer_1-2"><path d="m2.52,15.27v155.32s-1,10.3,11,12.21c12,1.91,251.44,0,251.44,0,0,0,9.56-1.91,9.56-12.45V15.27s-.09-13.08-8.54-12.76c-8.46.32-255.83,0-255.83,0,0,0-7.63,2.23-7.63,12.76Z" style="fill:none; stroke:#48dc85; stroke-miterlimit:10; stroke-width:5px;"/><line x1="2.52" y1="155.41" x2="274.52" y2="155.41" style="fill:none; stroke:#48dc85; stroke-miterlimit:10; stroke-width:5px;"/><path d="m191.75,217.5h-106.47c-.7,0-1.27-.56-1.27-1.26v-12.41c0-.7.57-1.26,1.27-1.26h106.47c.7,0,1.27.56,1.27,1.26v12.41c0,.7-.57,1.26-1.27,1.26Z" style="fill:none; stroke:#48dc85; stroke-miterlimit:10; stroke-width:5px;"/><line x1="111.02" y1="184.65" x2="106.66" y2="202.57" style="fill:none; stroke:#48dc85; stroke-miterlimit:10; stroke-width:5px;"/><line x1="166.66" y1="184.65" x2="170.74" y2="202.57" style="fill:none; stroke:#48dc85; stroke-miterlimit:10; stroke-width:5px;"/><rect x="131.02" y="168.73" width="15" height="1.99" rx="1" ry="1" style="fill:none; stroke:#48dc85; stroke-miterlimit:10; stroke-width:5px;"/><polygon points="46.21 38.67 90.5 38.67 93.86 42.01 116.06 64.11 116.06 126.84 46.21 126.84 46.21 38.67" style="fill:none; stroke:#48dc85; stroke-miterlimit:10; stroke-width:5px;"/><polyline points="93.91 40.37 114.32 40.37 114.32 61.47" style="fill:none; stroke:#48dc85; stroke-miterlimit:10; stroke-width:5px;"/><rect x="77.73" y="80.21" width="25.55" height="1.7" rx=".5" ry=".5" style="fill:none; stroke:#48dc85; stroke-miterlimit:10; stroke-width:5px;"/><rect x="65.8" y="97.17" width="37.48" height="1.7" rx=".5" ry=".5" style="fill:none; stroke:#48dc85; stroke-miterlimit:10; stroke-width:5px;"/><rect x="74.32" y="114.13" width="10.22" height="1.7" rx=".5" ry=".5" style="fill:none; stroke:#48dc85; stroke-miterlimit:10; stroke-width:5px;"/><rect x="93.06" y="114.13" width="10.22" height="1.7" rx=".5" ry=".5" style="fill:none; stroke:#48dc85; stroke-miterlimit:10; stroke-width:5px;"/><polygon points="164.72 39.28 209.01 39.28 212.36 42.62 234.56 64.71 234.56 127.45 164.72 127.45 164.72 39.28" style="fill:none; stroke:#48dc85; stroke-miterlimit:10; stroke-width:5px;"/><polyline points="212.42 40.97 232.82 40.97 232.82 62.08" style="fill:none; stroke:#48dc85; stroke-miterlimit:10; stroke-width:5px;"/><rect x="196.23" y="80.82" width="25.55" height="1.7" rx=".5" ry=".5" style="fill:none; stroke:#48dc85; stroke-miterlimit:10; stroke-width:5px;"/><rect x="184.31" y="97.78" width="37.48" height="1.7" rx=".5" ry=".5" style="fill:none; stroke:#48dc85; stroke-miterlimit:10; stroke-width:5px;"/><rect x="192.83" y="114.73" width="10.22" height="1.7" rx=".5" ry=".5" style="fill:none; stroke:#48dc85; stroke-miterlimit:10; stroke-width:5px;"/><rect x="211.57" y="114.73" width="10.22" height="1.7" rx=".5" ry=".5" style="fill:none; stroke:#48dc85; stroke-miterlimit:10; stroke-width:5px;"/><rect x="31.76" y="67.34" width="30.95" height="40.92" rx="3.71" ry="3.71" style="fill:#262727; stroke:#48dc85; stroke-miterlimit:10; stroke-width:4px;"/><rect x="41.92" y="61.57" width="10.16" height="5.78" rx="1.98" ry="1.98" style="fill:#262727; stroke:#48dc85; stroke-miterlimit:10; stroke-width:4px;"/><rect x="21.61" y="74.56" width="49.33" height=".96" rx=".48" ry=".48" style="fill:#262727; stroke:#48dc85; stroke-miterlimit:10; stroke-width:4px;"/><rect x="39.74" y="80.58" width=".97" height="20.7" rx=".48" ry=".48" style="fill:#262727; stroke:#48dc85; stroke-miterlimit:10; stroke-width:4px;"/><rect x="52.8" y="80.58" width=".97" height="20.7" rx=".48" ry=".48" style="fill:#262727; stroke:#48dc85; stroke-miterlimit:10; stroke-width:4px;"/></g></svg>