<?xml version="1.0" encoding="UTF-8"?><svg id="Layer_2" xmlns="http://www.w3.org/2000/svg" width="305.13" height="359.26" viewBox="0 0 305.13 359.26"><g id="Layer_2-2"><g id="Layer_1-2"><path d="m46.63,265.67v60.05l99,30.95,157-38V106.15s-19-53.48-60-52.48-47.07,0-47.07,0c0,0-4.93-27.99,24.07-26.99V2.5h-34.8v59.17l7.15,11.83,3.57-19.85-3.57,19.85s31.65-6.83,36.65,94.17" style="fill:none; stroke:#53df69; stroke-miterlimit:10; stroke-width:5px;"/><path d="m184.83,50.67h-70.2s27,15,27,83,4,223,4,223" style="fill:none; stroke:#53df69; stroke-miterlimit:10; stroke-width:5px;"/><path d="m34.63,192.67L2.63,235.67s9,58,69,12l33-36-83.19-1.28,106.95,1.73,3.58.06,10.53.17" style="fill:none; stroke:#53df69; stroke-miterlimit:10; stroke-width:5px;"/><line x1="133.33" y1="78.19" x2="133.33" y2="212.17" style="fill:none; stroke:#53df69; stroke-miterlimit:10; stroke-width:5px;"/><polyline points="133.33 129.38 108.63 115.67 108.63 211.82" style="fill:none; stroke:#53df69; stroke-miterlimit:10; stroke-width:5px;"/><rect x="120.98" y="132.44" width="12.35" height="71.22" style="fill:none; stroke:#53df69; stroke-miterlimit:10; stroke-width:5px;"/><polyline points="108.63 138.06 63.63 127.67 56.08 136.83 56.58 137.02 107.63 155.67 108.63 170.74 55.63 149.2 60.63 142.67 55.63 136.7" style="fill:none; stroke:#53df69; stroke-miterlimit:10; stroke-width:5px;"/><line x1="60.63" y1="142.67" x2="108.63" y2="162.83" style="fill:none; stroke:#53df69; stroke-miterlimit:10; stroke-width:5px;"/><polyline points="55.63 149.2 56.63 158.67 51.72 168.05 108.63 185.98 108.63 176.61 56.63 158.67" style="fill:none; stroke:#53df69; stroke-miterlimit:10; stroke-width:5px;"/><polyline points="51.72 168.05 56.63 176.67 49.63 189.67 107.63 194.67 56.63 176.67" style="fill:none; stroke:#53df69; stroke-miterlimit:10; stroke-width:5px;"/><polyline points="34.63 192.67 43.98 192.67 108.63 211.08 109 201.87 55.63 195.59" style="fill:none; stroke:#53df69; stroke-miterlimit:10; stroke-width:5px;"/><path d="m43.63,192.67v-48h-18.46s-3.67-97.57,47.39-99.29h1.84" style="fill:none; stroke:#53df69; stroke-miterlimit:10; stroke-width:5px;"/><path d="m113.85,50.67h-8.43s-11.8-17-21.8-17-9,14-9,14l28,15,2-13" style="fill:none; stroke:#53df69; stroke-miterlimit:10; stroke-width:5px;"/><path d="m49.8,134.73l-.04,1.37c2.13-82.56,32.37-84.42,32.37-84.42" style="fill:none; stroke:#53df69; stroke-miterlimit:10; stroke-width:5px;"/><line x1="46.63" y1="265.78" x2="46.63" y2="262.61" style="fill:none; stroke:#53df69; stroke-miterlimit:10; stroke-width:5px;"/><path d="m237.6,53.78c5.21,1.23,12.64,3.65,20.03,8.88,25.56,18.09,28.41,54.03,30,84,2.09,39.53,3.29,93.6,0,160" style="fill:none; stroke:#53df69; stroke-miterlimit:10; stroke-width:5px;"/><polygon points="182.63 208.67 182.63 299.42 274.63 274.67 274.63 181.36 182.63 208.67" style="fill:none; stroke:#53df69; stroke-miterlimit:10; stroke-width:5px;"/><polyline points="194.63 248.67 194.63 219.25 202.63 236.67 210.1 219.25 210.1 247.67" style="fill:none; stroke:#53df69; stroke-miterlimit:10; stroke-width:5px;"/><path d="m217.63,213.67l-2,33,2-33Z" style="fill:none; stroke:#53df69; stroke-miterlimit:10; stroke-width:5px;"/><polyline points="236.63 237.67 228.63 227.56 217.63 213.67 216.63 230.17 226.63 225.38" style="fill:none; stroke:#53df69; stroke-miterlimit:10; stroke-width:5px;"/><line x1="236.63" y1="208.91" x2="240.63" y2="234.67" style="fill:none; stroke:#53df69; stroke-miterlimit:10; stroke-width:5px;"/><polyline points="244.63 205.67 248.63 233.67 259.63 229.67" style="fill:none; stroke:#53df69; stroke-miterlimit:10; stroke-width:5px;"/><path d="m202.37,260.61l2.26,24.05s15-1,14-8-14.27-4.03-14.27-4.03c0,0,10.27-3.97,9.27-9.97s-11.26-2.05-11.26-2.05Z" style="fill:none; stroke:#53df69; stroke-miterlimit:10; stroke-width:5px;"/><path d="m227.63,254.67s8.94-1,9.97,8.5c1.03,9.5-.97,11.5-6.97,12.5s-10-3-11-10,3-10,8-11h0Z" style="fill:none; stroke:#53df69; stroke-miterlimit:10; stroke-width:5px;"/><line x1="256.45" y1="246.67" x2="246.63" y2="273.67" style="fill:none; stroke:#53df69; stroke-miterlimit:10; stroke-width:5px;"/><line x1="239.63" y1="251.67" x2="261.63" y2="267.67" style="fill:none; stroke:#53df69; stroke-miterlimit:10; stroke-width:5px;"/></g></g></svg>