<?xml version="1.0" encoding="UTF-8"?><svg id="Layer_2" xmlns="http://www.w3.org/2000/svg" width="94" height="107.86" viewBox="0 0 94 107.86"><g id="Layer_1-2"><polyline points="2 100.86 48 75.38 91 100.86 59 81.86 92 47.98 92 105.86 2 105.86 2 99.9 2 46.86 36.78 81.6" style="fill:none; stroke:#53df69; stroke-miterlimit:10; stroke-width:4px;"/><polyline points="11.05 55.9 11.05 19.04 85 19.04 85 54.36" style="fill:none; stroke:#53df69; stroke-miterlimit:10; stroke-width:4px;"/><line x1="2" y1="46.86" x2="10.95" y2="37.91" style="fill:none; stroke:#53df69; stroke-miterlimit:10; stroke-width:4px;"/><line x1="92" y1="47.98" x2="84.94" y2="40.92" style="fill:none; stroke:#53df69; stroke-miterlimit:10; stroke-width:4px;"/><polyline points="31 18.86 48 2.86 62.29 18.86" style="fill:none; stroke:#53df69; stroke-miterlimit:10; stroke-width:4px;"/><rect x="40.46" y="60.74" width="5.99" height="10.8" transform="translate(-30.02 36.74) rotate(-34.88)" style="fill:none; stroke:#53df69; stroke-miterlimit:10; stroke-width:4px;"/><rect x="29.77" y="47.53" width="13" height="14.99" transform="translate(-24.95 30.63) rotate(-34.88)" style="fill:none; stroke:#53df69; stroke-miterlimit:10; stroke-width:4px;"/><rect x="27" y="55.86" width="4" height="8" transform="translate(-29.03 27.34) rotate(-34.88)" style="fill:none; stroke:#53df69; stroke-miterlimit:10; stroke-width:4px;"/><path d="m38.17,46.39l11.83-17.53c0-.46,0-4.11,2-5,.35-.15,1.57-.58,4,1,0,0,15,26,15,26h0c.3.82.6,2.08,0,3-.93,1.43-3.49,1.24-4.65,1.16-9.7-.6-21.19.84-21.35.84h0" style="fill:none; stroke:#53df69; stroke-miterlimit:10; stroke-width:4px;"/><line x1="50" y1="28.86" x2="66.71" y2="55.03" style="fill:none; stroke:#53df69; stroke-miterlimit:10; stroke-width:4px;"/><line x1="66.71" y1="23.69" x2="63" y2="30.86" style="fill:none; stroke:#53df69; stroke-miterlimit:10; stroke-width:4px;"/><line x1="72" y1="31.86" x2="66.71" y2="36.07" style="fill:none; stroke:#53df69; stroke-miterlimit:10; stroke-width:4px;"/><line x1="69" y1="40.86" x2="77" y2="40.86" style="fill:none; stroke:#53df69; stroke-miterlimit:10; stroke-width:4px;"/></g></svg>