<?xml version="1.0" encoding="UTF-8"?><svg id="Layer_2" xmlns="http://www.w3.org/2000/svg" width="115.68" height="114.23" viewBox="0 0 115.68 114.23"><g id="Layer_2-2"><path d="m46.72,30.77c-.22-.12-2.53-.82-4.4,0-2.18.95-2.48,3.43-2.52,3.78-.03.25-.2,2.29,1.26,3.78.27.27.92.93,1.93,1.1,1.34.23,2.76-.46,3.73-1.73v-8.18s-.61,9.8,1.26,10.07c4.4.63,4.43-3,3.78-6.92s-4.35-6.42-8.18-6.29c-1.83.06-5.45.23-7.64,4.67-1.9,3.86-.06,8,.72,9.17,1.26,1.89,5.66,2.52,5.66,2.52h0" style="fill:none; stroke:#53df69; stroke-miterlimit:10; stroke-width:3px;"/><path d="m114.27,112.81l-36.54-36.54s21.15-27.88,4.81-51.92C66.19.31,43.12-3.53,23.89,8.97,4.66,21.47-5.47,52.87,8.5,72.43c14.42,20.19,48.08,23.08,69.23,3.85" style="fill:none; stroke:#53df69; stroke-miterlimit:10; stroke-width:4px;"/><polyline points="15.72 70.24 43.83 54.24 71.72 69.24 50.33 57.86 67.41 40.78 71.95 36.24 71.95 72.24 15.72 72.24 15.72 36.24 37.56 57.82" style="fill:none; stroke:#53df69; stroke-miterlimit:10; stroke-width:3px;"/><polyline points="20.72 41.24 20.72 18.24 66.97 18.24" style="fill:none; stroke:#53df69; stroke-miterlimit:10; stroke-width:3px;"/><polyline points="66.72 18.24 66.81 18.24 66.81 41.24" style="fill:none; stroke:#53df69; stroke-miterlimit:10; stroke-width:3px;"/><line x1="15.72" y1="36.24" x2="20.72" y2="31.24" style="fill:none; stroke:#53df69; stroke-miterlimit:10; stroke-width:3px;"/><line x1="71.95" y1="36.24" x2="66.83" y2="31.13" style="fill:none; stroke:#53df69; stroke-miterlimit:10; stroke-width:3px;"/><polyline points="33.71 18.24 43.72 8.24 53.72 18.24" style="fill:none; stroke:#53df69; stroke-miterlimit:10; stroke-width:3px;"/></g></svg>