<?xml version="1.0" encoding="UTF-8"?><svg id="Layer_2" xmlns="http://www.w3.org/2000/svg" width="141.24" height="144.33" viewBox="0 0 141.24 144.33"><g id="Layer_2-2"><g id="Layer_1-2"><rect x="2" y="81.33" width="97" height="61" style="fill:none; stroke:#53df69; stroke-miterlimit:10; stroke-width:4px;"/><polyline points="2 81.33 23 60.33 23 43.33 23 73.33 30.58 80.91 16.72 67.05 16.72 80.95" style="fill:none; stroke:#53df69; stroke-miterlimit:10; stroke-width:4px;"/><polyline points="23 43.33 92.27 43.33 92.27 74.57 85.26 81.58 99 68.33 99 81.33" style="fill:none; stroke:#53df69; stroke-miterlimit:10; stroke-width:4px;"/><line x1="99" y1="68.33" x2="92.42" y2="61.75" style="fill:none; stroke:#53df69; stroke-miterlimit:10; stroke-width:4px;"/><path d="m63,61.33c-.35-.2-4.02-1.3-7,0-3.47,1.51-3.94,5.45-4,6-.04.4-.33,3.64,2,6,.43.44,1.45,1.47,3.07,1.76,2.12.37,4.39-.73,5.93-2.76v-13s-.97,15.58,2,16c7,1,7.04-4.76,6-11s-6.92-10.2-13-10c-2.91.09-8.66.36-12.14,7.42-3.03,6.13-.1,12.72,1.14,14.58,2,3,9,4,9,4h0" style="fill:none; stroke:#53df69; stroke-miterlimit:10; stroke-width:4px;"/><polyline points="99 142.33 139.24 80.33 139.24 40.49 117.03 40.49 117.03 18.33 77 18.33 88 29.33 105 29.33 105 62.45 99.6 67.86 123.56 43.89 123.56 99.33 112 99.33 111.6 55.86 111.6 109.33 99 109.33" style="fill:none; stroke:#53df69; stroke-miterlimit:10; stroke-width:4px;"/><line x1="111.6" y1="104.83" x2="99" y2="98.1" style="fill:none; stroke:#53df69; stroke-miterlimit:10; stroke-width:4px;"/><line x1="123.56" y1="95.34" x2="112" y2="89.33" style="fill:none; stroke:#53df69; stroke-miterlimit:10; stroke-width:4px;"/><polyline points="41.84 43.33 58 28.33 73.16 43.33" style="fill:none; stroke:#53df69; stroke-miterlimit:10; stroke-width:4px;"/><path d="m70.5,40.02s6.5-.69,8.5,3.31" style="fill:none; stroke:#53df69; stroke-miterlimit:10; stroke-width:4px;"/><polyline points="77 18.33 70.5 11.83 52.5 29.83 36 29.83 36 43.33" style="fill:none; stroke:#53df69; stroke-miterlimit:10; stroke-width:4px;"/><line x1="52.5" y1="29.83" x2="56.11" y2="29.83" style="fill:none; stroke:#53df69; stroke-miterlimit:10; stroke-width:4px;"/><line x1="88" y1="29.33" x2="59.26" y2="29.33" style="fill:none; stroke:#53df69; stroke-miterlimit:10; stroke-width:4px;"/><polyline points="64 18.33 47 18.33 47 29.33" style="fill:none; stroke:#53df69; stroke-miterlimit:10; stroke-width:4px;"/><polyline points="72 12.33 81.5 2.83 97 18.33" style="fill:none; stroke:#53df69; stroke-miterlimit:10; stroke-width:4px;"/><line x1="105" y1="48.33" x2="112.06" y2="55.39" style="fill:none; stroke:#53df69; stroke-miterlimit:10; stroke-width:4px;"/><line x1="117.03" y1="40.49" x2="117.03" y2="50.15" style="fill:none; stroke:#53df69; stroke-miterlimit:10; stroke-width:4px;"/><line x1="123.56" y1="43.89" x2="117.59" y2="40.49" style="fill:none; stroke:#53df69; stroke-miterlimit:10; stroke-width:4px;"/></g></g></svg>