<?xml version="1.0" encoding="UTF-8"?>
<svg id="Layer_2" data-name="Layer 2" xmlns="http://www.w3.org/2000/svg" viewBox="0 0 1366 768">
  <defs>
    <style>
      .cls-1 {
        fill: #171717;
        stroke: #171717;
        stroke-miterlimit: 10;
        stroke-width: 2px;
      }
    </style>
  </defs>
  <rect class="cls-1" x="1123" y="592" width="81" height="81"/>
  <rect class="cls-1" x="1204" y="268" width="81" height="81"/>
  <rect class="cls-1" x="1042" y="349" width="81" height="81"/>
  <rect class="cls-1" x="1285" y="349" width="81" height="81"/>
  <rect class="cls-1" x="1204" y="349" width="81" height="81"/>
  <rect class="cls-1" x="1123" y="349" width="81" height="81"/>
  <rect class="cls-1" x="720" y="592" width="81" height="81"/>
  <rect class="cls-1" x="800" y="592" width="81" height="81"/>
  <rect class="cls-1" x="720" y="511" width="81" height="81"/>
  <rect class="cls-1" x="800" y="430" width="81" height="81"/>
  <rect class="cls-1" x="1123" y="430" width="81" height="81"/>
  <rect class="cls-1" x="880" y="430" width="81" height="81"/>
  <rect class="cls-1" x="880" y="511" width="81" height="81"/>
  <rect class="cls-1" x="961" y="511" width="81" height="81"/>
  <rect class="cls-1" x="961" y="592" width="81" height="81"/>
  <rect class="cls-1" x="1042" y="592" width="81" height="81"/>
  <rect class="cls-1" x="1042" y="511" width="81" height="81"/>
  <rect class="cls-1" x="1285" y="511" width="81" height="81"/>
  <rect class="cls-1" x="1204" y="511" width="81" height="81"/>
  <rect class="cls-1" x="1204" y="592" width="81" height="81"/>
  <rect class="cls-1" x="880" y="268" width="81" height="81"/>
  <rect class="cls-1" x="961" y="268" width="81" height="81"/>
  <rect class="cls-1" x="880" y="187" width="81" height="81"/>
  <rect class="cls-1" x="880" y="106" width="81" height="81"/>
  <rect class="cls-1" x="961" y="106" width="81" height="81"/>
  <rect class="cls-1" x="1042" y="187" width="81" height="81"/>
  <rect class="cls-1" x="1042" y="106" width="81" height="81"/>
  <rect class="cls-1" x="1042" y="25" width="81" height="81"/>
  <rect class="cls-1" x="1123" y="25" width="81" height="81"/>
  <rect class="cls-1" x="1123" y="106" width="81" height="81"/>
  <rect class="cls-1" x="1204" y="106" width="81" height="81"/>
  <rect class="cls-1" x="1285" y="187" width="81" height="81"/>
  <rect class="cls-1" x="1123" y="187" width="81" height="81"/>
  <rect class="cls-1" x="1204" y="187" width="81" height="81"/>
  <rect class="cls-1" x="1123" y="268" width="81" height="81"/>
  <rect class="cls-1" x="396" y="268" width="81" height="81"/>
  <rect class="cls-1" x="396" y="430" width="81" height="81"/>
  <rect class="cls-1" x="298" y="592" width="81" height="81"/>
  <rect class="cls-1" x="477" y="511" width="81" height="81"/>
  <rect class="cls-1" x="558" y="673" width="81" height="81"/>
  <rect class="cls-1" x="1123" y="673" width="81" height="81"/>
  <rect class="cls-1" x="639" y="430" width="81" height="81"/>
  <rect class="cls-1" x="558" y="349" width="81" height="81"/>
  <rect class="cls-1" x="720" y="25" width="81" height="81"/>
  <rect class="cls-1" x="558" y="106" width="81" height="81"/>
  <rect class="cls-1" x="639" y="106" width="81" height="81"/>
  <rect class="cls-1" x="639" y="187" width="81" height="81"/>
  <rect class="cls-1" x="720" y="187" width="81" height="81"/>
  <rect class="cls-1" x="639" y="349" width="81" height="81"/>
  <rect class="cls-1" x="720" y="349" width="81" height="81"/>
  <rect class="cls-1" x="800" y="349" width="81" height="81"/>
  <rect class="cls-1" x="720" y="268" width="81" height="81"/>
  <rect class="cls-1" x="799" y="268" width="81" height="81"/>
</svg>