<?xml version="1.0" encoding="UTF-8"?><svg id="Layer_2" xmlns="http://www.w3.org/2000/svg" width="256.9" height="282.67" viewBox="0 0 256.9 282.67"><g id="Layer_1-2"><path d="m49.92,99.5h192.71c3.93,4.1,14.16,7.84-4.71,18,0,0-7,145-17,153s-11.66,12.09-72.82,10.22c-60.1-1.83-84.18,6.78-86.18-20.22-2.14-28.92-2-114-2-114,0,0,1-32-11-34s1-13,1-13Z" style="fill:none; stroke:#acefd4; stroke-miterlimit:10; stroke-width:3px;"/><path d="m91.79,9.12c-.55.84-1.49,1.35-2.5,1.34-4.64-.07-17.43.17-14.37,5.04,1.79,2.85,157.79,65.56,170.55,76.27.82.68,1.95.85,2.94.45,4.18-1.69,12.22-6.05,2.09-11.87-.96-.55-1.5-1.61-1.45-2.71.23-4.73.09-17.12-7.13-21.13-9-5-34-17-34-17l-1.89-.94c-1.49-.75-2.08-2.59-1.27-4.05.93-1.66,2.15-3.46,2.15-4.01,0-1-4-6-10-9-18.17-9.09-31.86-15.27-37.98-16.75-1.63-.39-3.31.16-4.48,1.36-1.37,1.4-2.95,2.81-4.54,4.4-.71.71-3.95,5.07-5,4-2.76-2.83-27.82-11.93-41.85-12.99-.1,0-.2-.01-.3-.01-3.68.03-6.75,1.17-10.97,7.62Z" style="fill:none; stroke:#b0f2d3; stroke-miterlimit:10; stroke-width:3px;"/><path d="m195.92,29.5s-35-21-39-13c-2.47,4.94,32.03,14.68,35,17,2.37,1.84,5-2,4-4Z" style="fill:none; stroke:#b0f2d3; stroke-miterlimit:10; stroke-width:3px;"/><polygon points="34.92 9.5 59.92 19.5 41.92 75.5 1.92 62.5 18.46 14.68 27.92 21.5 34.92 9.5" style="fill:none; stroke:#b0f2d3; stroke-miterlimit:10; stroke-width:3px;"/><line x1="18.46" y1="14.68" x2="34.92" y2="9.5" style="fill:none; stroke:#b0f2d3; stroke-miterlimit:10; stroke-width:3px;"/><polyline points="54.72 35.68 65.92 38.5 46.92 91.5 7.91 75.5 12.65 65.99" style="fill:none; stroke:#b0f2d3; stroke-miterlimit:10; stroke-width:3px;"/><line x1="52.36" y1="42.01" x2="59.92" y2="44.5" style="fill:none; stroke:#b0f2d3; stroke-miterlimit:10; stroke-width:3px;"/><line x1="50.24" y1="47.56" x2="57.79" y2="50.05" style="fill:none; stroke:#b0f2d3; stroke-miterlimit:10; stroke-width:3px;"/><line x1="46.24" y1="59.56" x2="53.79" y2="62.05" style="fill:none; stroke:#b0f2d3; stroke-miterlimit:10; stroke-width:3px;"/><line x1="41.24" y1="72.56" x2="48.79" y2="75.05" style="fill:none; stroke:#b0f2d3; stroke-miterlimit:10; stroke-width:3px;"/><line x1="47.18" y1="66.56" x2="51.79" y2="69.05" style="fill:none; stroke:#b0f2d3; stroke-miterlimit:10; stroke-width:3px;"/><line x1="48.24" y1="53.48" x2="55.79" y2="55.97" style="fill:none; stroke:#b0f2d3; stroke-miterlimit:10; stroke-width:3px;"/><line x1="12.72" y1="70.75" x2="46.07" y2="82.23" style="fill:none; stroke:#b0f2d3; stroke-miterlimit:10; stroke-width:3px;"/><path d="m70.12,122.78h10.06c10.09,0,14.2,6.65,14.2,19.41,0,13.75-3.86,21.24-14.79,21.24h-9.46v-40.65Zm6.37,35.43h2.99c6.28,0,8.38-4.83,8.38-15.95,0-9.84-2.09-14.18-8.32-14.18h-3.05v30.13Z" style="fill:#f0f2f4; stroke:#f0f2f4; stroke-miterlimit:10;"/><path d="m106.62,122.78v40.65h-6.32v-40.65h6.32Z" style="fill:#f0f2f4; stroke:#f0f2f4; stroke-miterlimit:10;"/><path d="m137.35,163.43h-4.85c-.16-1.21-.28-2.23-.32-3.78-1.65,3.08-4.2,4.44-8.09,4.44-8.6,0-11.41-8.08-11.41-20.81,0-14.55,4.76-21.13,13.33-21.13,10.58,0,11.2,9.17,11.32,11.59h-6.26c-.12-1.57-.46-6.2-5.25-6.2-5.05,0-6.6,6.42-6.6,15.71s1.25,15.5,6.26,15.5c4.41,0,5.61-3.51,5.61-10.37v-2.18h-6.01v-5.43h12.28v22.65Z" style="fill:#f0f2f4; stroke:#f0f2f4; stroke-miterlimit:10;"/><path d="m150.3,122.78v40.65h-6.32v-40.65h6.32Z" style="fill:#f0f2f4; stroke:#f0f2f4; stroke-miterlimit:10;"/><path d="m163.25,128.33h-8.81v-5.55h23.95v5.55h-8.81v35.09h-6.32v-35.09Z" style="fill:#f0f2f4; stroke:#f0f2f4; stroke-miterlimit:10;"/><path d="m184.55,152.28l-2.34,11.14h-6.32l9.55-40.65h8.2l9.72,40.65h-6.65l-2.36-11.14h-9.8Zm8.64-5.51c-1.8-8.53-3.12-14.45-3.73-18.11h-.16c-.52,3.67-1.93,10.19-3.6,18.11h7.49Z" style="fill:#f0f2f4; stroke:#f0f2f4; stroke-miterlimit:10;"/><path d="m207.16,122.78h6.32v35.22h14.12l-.68,5.43h-19.76v-40.65Z" style="fill:#f0f2f4; stroke:#f0f2f4; stroke-miterlimit:10;"/><path d="m88.23,198.2c-.15,1.8-.87,10.25-9.86,10.25s-10.38-8.83-10.38-17.61c0-10.59,3.01-17.35,10.76-17.35,8.7,0,9.32,7.69,9.44,10.18h-5.23c-.08-1.15-.21-5.66-4.29-5.66-4.33,0-5.22,5.56-5.22,12.92,0,6.65.69,13.07,5.03,13.07,3.92,0,4.35-4.36,4.5-5.8h5.26Z" style="fill:#d82879; stroke:#d82879; stroke-miterlimit:10;"/><path d="m92.33,174.02h5.27v29.35h11.77l-.57,4.52h-16.46v-33.88Z" style="fill:#d82879; stroke:#d82879; stroke-miterlimit:10;"/><path d="m128.75,192.43h-11.02v10.91h12.33l-.67,4.56h-16.86v-33.88h16.75v4.63h-11.55v9.18h11.02v4.59Z" style="fill:#d82879; stroke:#d82879; stroke-miterlimit:10;"/><path d="m139.69,198.61l-1.95,9.29h-5.27s7.96-33.88,7.96-33.88h6.83l8.1,33.88h-5.54l-1.96-9.29h-8.17Zm7.2-4.59c-1.5-7.11-2.6-12.04-3.11-15.09h-.13c-.43,3.06-1.61,8.49-3,15.09h6.24Z" style="fill:#d82879; stroke:#d82879; stroke-miterlimit:10;"/><path d="m158.52,207.89v-33.88h6.1c7.81,20.34,9.15,23.78,9.56,25.37h.05c-.27-4.23-.3-9.26-.3-14.79v-10.58h4.76v33.88h-5.84c-8.09-21.56-9.34-24.99-9.76-26.47h-.05c.25,4.2.27,9.38.27,15.46v11.01h-4.78Z" style="fill:#d82879; stroke:#d82879; stroke-miterlimit:10;"/><path d="m189.86,174.02v23.47c0,3.1.82,6.53,4.81,6.53s4.79-2.88,4.79-6.51v-23.49h5.27v23.57c0,6.11-2.33,10.88-10.16,10.88s-9.99-4.48-9.99-10.81v-23.64h5.29Z" style="fill:#d82879; stroke:#d82879; stroke-miterlimit:10;"/><path d="m210.37,174.02h9.69c5.5,0,9.52,3.35,9.52,9.86s-3.63,9.95-10.01,9.95h-3.93v14.07h-5.27v-33.88Zm5.27,15.53h3.34c3.6,0,5.3-1.83,5.3-5.74,0-3.51-1.82-5.47-4.94-5.47h-3.7v11.21Z" style="fill:#d82879; stroke:#d82879; stroke-miterlimit:10;"/><path d="m70.71,217.02h10.23c10.26,0,14.44,6.76,14.44,19.74,0,13.98-3.93,21.6-15.04,21.6h-9.62v-41.33Zm6.47,36.02h3.04c6.39,0,8.52-4.91,8.52-16.22,0-10.01-2.13-14.42-8.46-14.42h-3.1v30.63Z" style="fill:#f0f2f4; stroke:#f0f2f4; stroke-miterlimit:10;"/><path d="m106.59,247.02l-2.38,11.33h-6.43s9.71-41.33,9.71-41.33h8.33l9.88,41.33h-6.76l-2.4-11.33h-9.97Zm8.78-5.6c-1.83-8.68-3.18-14.69-3.79-18.41h-.16c-.52,3.73-1.96,10.36-3.66,18.41h7.62Z" style="fill:#f0f2f4; stroke:#f0f2f4; stroke-miterlimit:10;"/><path d="m132.65,258.35v-15.01c0-.45-.08-.82-.27-1.24l-10.44-25.08h7.18c2.49,6.66,5.71,15.22,6.95,19.48,1.49-4.71,4.74-13.15,7.02-19.48h6.78l-10.57,25.15c-.12.27-.23.7-.23,1.28v14.9h-6.43Z" style="fill:#f0f2f4; stroke:#f0f2f4; stroke-miterlimit:10;"/><path d="m156.48,234.77v-.25c.02-3.76,1.36-5.92,4.38-9.33,2.12-2.41,2.56-3,2.57-4.95,0-1.18-.18-2.04-1.28-2.04-1.18,0-1.44,1.02-1.48,2.97h-4.22c.02-3.21,1.21-6.37,5.88-6.37,4.15,0,5.69,2.36,5.69,5.68,0,2.38-.61,3.66-3.1,6.31-1.64,1.75-2.78,3.11-3.17,4.25h6.72s-.55,3.72-.55,3.72h-11.44Z" style="fill:#eaa8d6; stroke-width:0px;"/><path d="m182.14,224.78c0,8.49-2.59,10.31-6.2,10.31-3.54,0-6.12-1.89-6.11-10.38,0-8.57,3.08-9.89,6.21-9.89,3.25,0,6.11,1.51,6.11,9.96Zm-7.76-.12c0,5.16.12,6.96,1.6,6.96,1.45,0,1.58-1.79,1.58-6.92,0-5.16-.11-6.39-1.58-6.39-1.34,0-1.61,1.42-1.61,6.35Z" style="fill:#eaa8d6; stroke-width:0px;"/><path d="m183.96,234.79v-.25c.02-3.76,1.36-5.92,4.38-9.33,2.12-2.41,2.57-3,2.57-4.95,0-1.18-.18-2.04-1.28-2.04-1.18,0-1.44,1.02-1.47,2.97h-4.22c.02-3.21,1.21-6.37,5.88-6.37,4.15,0,5.69,2.36,5.69,5.68,0,2.38-.61,3.66-3.1,6.31-1.64,1.75-2.78,3.11-3.17,4.25h6.72s-.55,3.72-.55,3.72h-11.43Z" style="fill:#eaa8d6; stroke-width:0px;"/><path d="m203.51,234.81v-4.35s-6.76,0-6.76,0v-3.54s4.91-11.79,4.91-11.79h6.08s0,11.78,0,11.78h1.63s-.34,3.55-.34,3.55h-1.29s0,4.35,0,4.35h-4.21Zm0-10.71c0-2.12.11-4.17.16-5.72-.56,2.13-2.04,6.18-2.91,8.53h2.75s0-2.81,0-2.81Z" style="fill:#eaa8d6; stroke-width:0px;"/><path d="m171.99,250.94c0-3.93.07-8.41.14-11.02h-.09c-.79,4.37-2.07,12.13-3.57,19.58h-3.72c-1.11-6.94-2.44-15.19-3.17-19.64h-.13c.14,2.69.24,7.51.24,11.48v8.16h-3.77v-23h6.16c1.2,6.36,2.26,12.78,2.72,16.14h.03c.47-3.12,1.91-10.05,3.11-16.14h6.01v23h-3.95v-8.55Z" style="fill:#eaa8d6; stroke-width:0px;"/><path d="m183.35,253.7l-1.14,5.79h-4.13l5.33-23h5.35l5.38,23h-4.32l-1.15-5.79h-5.32Zm4.59-3.57c-.86-4.4-1.54-7.62-1.91-9.82h-.1c-.28,2.12-1.01,5.57-1.86,9.82h3.86Z" style="fill:#eaa8d6; stroke-width:0px;"/><path d="m200.19,249.68v9.81h-4.1v-23h7.04c4.18,0,6.55,2.18,6.55,6.28,0,3.33-1.78,4.76-2.98,5.24,1.78.83,2.62,2.35,2.62,5.74v.92c0,2.61.12,3.59.31,4.82h-3.98c-.34-1.05-.4-2.87-.4-4.86v-.84c0-3.07-.71-4.11-3.31-4.11h-1.77Zm0-3.34h1.93c2.49,0,3.46-1.07,3.46-3.39,0-1.98-.95-3.13-3.05-3.13h-2.34v6.52Z" style="fill:#eaa8d6; stroke-width:0px;"/></g></svg>