<svg width="52" height="52" viewBox="0 0 52 52" fill="none" xmlns="http://www.w3.org/2000/svg">
<path d="M11.4402 4.15991C7.43165 4.15991 4.16016 7.43141 4.16016 11.4399V40.5599C4.16016 44.5684 7.43165 47.8399 11.4402 47.8399H40.5602C44.5687 47.8399 47.8402 44.5684 47.8402 40.5599V11.4399C47.8402 7.43141 44.5687 4.15991 40.5602 4.15991H11.4402ZM11.4402 6.23991H40.5602C43.4448 6.23991 45.7602 8.55529 45.7602 11.4399V40.5599C45.7602 43.4445 43.4448 45.7599 40.5602 45.7599H11.4402C8.55554 45.7599 6.24016 43.4445 6.24016 40.5599V11.4399C6.24016 8.55529 8.55554 6.23991 11.4402 6.23991ZM13.6095 13.5199L23.2011 27.1476L13.5202 38.4799H16.1202L24.3752 28.8152L31.1758 38.4799H39.4308L28.9008 23.5177L37.4402 13.5199H34.8402L27.7267 21.8501L21.8645 13.5199H13.6095ZM17.5908 15.5999H20.7778L35.4495 36.3999H32.2625L17.5908 15.5999Z" fill="#F3F3F3"/>
</svg>
