<svg width="52" height="52" viewBox="0 0 52 52" fill="none" xmlns="http://www.w3.org/2000/svg">
<path d="M9.36016 4.15991C6.50066 4.15991 4.16016 6.50041 4.16016 9.35991V42.6399C4.16016 45.4994 6.50066 47.8399 9.36016 47.8399H42.6402C45.4997 47.8399 47.8402 45.4994 47.8402 42.6399V9.35991C47.8402 6.50041 45.4997 4.15991 42.6402 4.15991H9.36016ZM9.36016 6.23991H42.6402C44.3754 6.23991 45.7602 7.62469 45.7602 9.35991V42.6399C45.7602 44.3751 44.3754 45.7599 42.6402 45.7599H9.36016C7.62494 45.7599 6.24016 44.3751 6.24016 42.6399V9.35991C6.24016 7.62469 7.62494 6.23991 9.36016 6.23991ZM15.6002 8.31991C16.0307 9.37343 18.0982 13.9163 18.7202 15.5938V19.7599H20.8002V15.5999L23.9202 8.31991H21.4237L19.7602 12.4799L18.0966 8.31991H15.6002ZM26.0002 11.4399C24.9539 11.4399 24.1583 11.7262 23.5748 12.423C23.1245 12.9378 22.8822 13.7635 22.8822 14.8524L22.8802 16.3555C22.8802 17.4382 23.0941 18.1869 23.5444 18.6976C24.1289 19.3912 25.0756 19.7599 26.0002 19.7599C26.9247 19.7599 27.8887 19.3913 28.4742 18.6955C28.9173 18.1859 29.1202 17.4382 29.1202 16.3555V14.8463C29.1202 13.7564 28.8685 12.9378 28.4255 12.423C27.841 11.7262 26.9247 11.4399 26.0002 11.4399ZM30.1602 11.4399V17.5113C30.1602 18.1977 30.2624 18.6641 30.408 18.9637C30.6472 19.4556 31.1261 19.7076 31.8136 19.7294C32.761 19.7606 33.4726 19.1463 34.3202 18.3299V19.7599H36.4002V11.4399H34.3202V17.0299C33.847 17.5905 33.3024 18.0882 32.8739 18.0882C32.59 18.0882 32.2922 17.9576 32.2402 17.6799V11.4399H30.1602ZM26.0002 13.1238C26.5742 13.1238 27.0402 13.5996 27.0402 14.1862V17.1051C27.0402 17.6906 26.5742 18.1674 26.0002 18.1674C25.4261 18.1674 24.9602 17.6916 24.9602 17.1051V14.1862C24.9602 13.6006 25.4261 13.1238 26.0002 13.1238ZM25.99 22.8799C25.99 22.8799 19.0122 22.8802 14.353 23.213C13.6978 23.2858 12.2824 23.2963 11.0136 24.5963C10.0152 25.5739 9.69328 27.8199 9.69328 27.8199C9.69328 27.8199 9.36016 29.4117 9.36016 32.0429V34.5068C9.36016 37.138 9.69328 38.7298 9.69328 38.7298C9.69328 38.7298 10.0152 40.9755 11.0136 41.9635C12.2824 43.2531 13.9457 43.2116 14.6841 43.3468C17.3465 43.5964 26.0002 43.6799 26.0002 43.6799C26.0002 43.6799 32.9881 43.6694 37.6473 43.3366C38.3025 43.2638 39.7179 43.2534 40.9867 41.9534C41.9851 40.9758 42.307 38.7298 42.307 38.7298C42.307 38.7298 42.6402 37.138 42.6402 34.5068V32.0429C42.6402 29.4117 42.307 27.8199 42.307 27.8199C42.307 27.8199 41.9851 25.5739 40.9867 24.5963C39.7179 23.2963 38.3025 23.2858 37.6473 23.213C32.9881 22.8802 26.0103 22.8799 26.0103 22.8799H25.99ZM12.4802 27.0399H18.7202V29.1199H16.6402V39.5199H14.5602V29.1199H12.4802V27.0399ZM26.0002 27.0399H28.0802V31.596C28.8602 30.6808 29.2753 30.1495 30.2841 30.1599C31.0745 30.1703 31.71 30.6182 31.97 31.4294C32.1052 31.8662 32.2402 32.6464 32.2402 33.676V36.536C32.2298 37.4512 32.1354 37.8562 32.0106 38.293C31.7506 39.1042 31.0745 39.5199 30.2841 39.5199C29.5873 39.5199 28.7354 39.0311 28.0802 38.2199V39.5199H26.0002V27.0399ZM18.7202 30.1599H20.8002V37.3262C20.8522 37.6278 21.0701 37.7405 21.3405 37.7405C21.7565 37.7405 22.4226 37.2834 22.8802 36.6802V30.1599H24.9602V39.5199H22.8802V38.096C22.0586 38.9904 21.08 39.5199 20.3208 39.5199C19.6552 39.5199 19.1886 39.2297 18.9598 38.6993C18.8246 38.3665 18.7202 37.8658 18.7202 37.117V30.1599ZM36.4306 30.1599C37.4602 30.1599 38.2819 30.4926 38.8539 31.1166C39.2803 31.5742 39.5202 32.282 39.5202 33.2596V35.3599H35.3602V37.2327C35.3602 37.7111 35.8282 38.1062 36.4002 38.1062C36.9722 38.1062 37.4402 37.7111 37.4402 37.2327V36.3999H39.5202C39.5202 36.9303 39.4574 37.3771 39.447 37.5435C39.3742 37.9075 39.2091 38.2415 38.9595 38.5327C38.3979 39.1983 37.5546 39.5199 36.4834 39.5199C35.4018 39.5199 34.59 39.2075 33.9972 38.5835C33.5604 38.1363 33.2802 37.4504 33.2802 36.4832V33.3002C33.2802 32.3226 33.5297 31.5742 33.9769 31.1166C34.5697 30.4926 35.3802 30.1599 36.4306 30.1599ZM36.4002 31.6671C35.8282 31.6671 35.3602 32.0517 35.3602 32.5405V33.9137H37.4402V32.5405C37.4402 32.0517 36.9722 31.6671 36.4002 31.6671ZM29.3497 31.9799C29.1885 31.9799 28.9533 32.0608 28.718 32.183C28.6003 32.2441 28.482 32.3152 28.3727 32.3923C28.2633 32.4693 28.1634 32.5528 28.0802 32.636V37.1799C28.1634 37.2631 28.2633 37.3401 28.3727 37.4074C28.7007 37.6092 29.1079 37.7304 29.3497 37.7304C29.5603 37.7304 29.7253 37.6791 29.8514 37.5557C29.8934 37.5146 29.932 37.4649 29.9652 37.4074C30.0315 37.2924 30.0792 37.1431 30.1114 36.9544C30.1436 36.7658 30.1602 36.5368 30.1602 36.2638V33.416C30.1602 33.143 30.1436 32.9152 30.1114 32.7294C30.0471 32.358 29.918 32.1495 29.7133 32.051C29.6109 32.0018 29.4901 31.9799 29.3497 31.9799Z" fill="#F3F3F3"/>
</svg>
